<mxfile host="app.diagrams.net" modified="2021-07-05T12:27:49.086Z" agent="5.0 (Windows NT 10.0; Win64; x64) AppleWebKit/537.36 (KHTML, like Gecko) Chrome/91.0.4472.124 Safari/537.36 Edg/91.0.864.64" etag="7g5mUiaB1M0yCuNjCUdY" version="14.8.4" type="github">
  <diagram id="ED703zKi4prlpvRcowPC" name="Page-1">
    <mxGraphModel dx="412" dy="753" grid="1" gridSize="10" guides="1" tooltips="1" connect="1" arrows="1" fold="1" page="1" pageScale="1" pageWidth="827" pageHeight="1169" background="none" math="0" shadow="0">
      <root>
        <mxCell id="0" />
        <mxCell id="1" parent="0" />
        <mxCell id="2aPY3oi1z3smAxlEYfkH-1" value="" style="endArrow=none;html=1;" parent="1" edge="1">
          <mxGeometry width="50" height="50" relative="1" as="geometry">
            <mxPoint x="80" y="520" as="sourcePoint" />
            <mxPoint x="80" y="140" as="targetPoint" />
          </mxGeometry>
        </mxCell>
        <mxCell id="2aPY3oi1z3smAxlEYfkH-2" value="" style="endArrow=none;html=1;" parent="1" edge="1">
          <mxGeometry width="50" height="50" relative="1" as="geometry">
            <mxPoint x="240" y="520" as="sourcePoint" />
            <mxPoint x="240" y="140" as="targetPoint" />
          </mxGeometry>
        </mxCell>
        <mxCell id="2aPY3oi1z3smAxlEYfkH-3" value="" style="endArrow=none;html=1;" parent="1" edge="1">
          <mxGeometry width="50" height="50" relative="1" as="geometry">
            <mxPoint x="400" y="520" as="sourcePoint" />
            <mxPoint x="400" y="140" as="targetPoint" />
          </mxGeometry>
        </mxCell>
        <mxCell id="2aPY3oi1z3smAxlEYfkH-4" value="" style="endArrow=classic;html=1;" parent="1" edge="1">
          <mxGeometry width="50" height="50" relative="1" as="geometry">
            <mxPoint x="80" y="190" as="sourcePoint" />
            <mxPoint x="240" y="190" as="targetPoint" />
          </mxGeometry>
        </mxCell>
        <mxCell id="2aPY3oi1z3smAxlEYfkH-8" value="https request" style="edgeLabel;html=1;align=center;verticalAlign=middle;resizable=0;points=[];" parent="2aPY3oi1z3smAxlEYfkH-4" vertex="1" connectable="0">
          <mxGeometry x="0.1321" y="1" relative="1" as="geometry">
            <mxPoint x="-9" as="offset" />
          </mxGeometry>
        </mxCell>
        <mxCell id="2aPY3oi1z3smAxlEYfkH-5" value="user" style="rounded=0;whiteSpace=wrap;html=1;" parent="1" vertex="1">
          <mxGeometry x="50" y="100" width="60" height="30" as="geometry" />
        </mxCell>
        <mxCell id="2aPY3oi1z3smAxlEYfkH-6" value="proxy" style="rounded=0;whiteSpace=wrap;html=1;" parent="1" vertex="1">
          <mxGeometry x="210" y="100" width="60" height="30" as="geometry" />
        </mxCell>
        <mxCell id="2aPY3oi1z3smAxlEYfkH-7" value="&lt;font style=&quot;font-size: 11px&quot;&gt;remote server&lt;/font&gt;" style="rounded=0;whiteSpace=wrap;html=1;" parent="1" vertex="1">
          <mxGeometry x="370" y="100" width="60" height="30" as="geometry" />
        </mxCell>
        <mxCell id="2aPY3oi1z3smAxlEYfkH-9" value="" style="endArrow=classic;html=1;" parent="1" edge="1">
          <mxGeometry width="50" height="50" relative="1" as="geometry">
            <mxPoint x="240" y="209" as="sourcePoint" />
            <mxPoint x="80" y="209" as="targetPoint" />
          </mxGeometry>
        </mxCell>
        <mxCell id="2aPY3oi1z3smAxlEYfkH-11" value="https response" style="edgeLabel;html=1;align=center;verticalAlign=middle;resizable=0;points=[];" parent="2aPY3oi1z3smAxlEYfkH-9" vertex="1" connectable="0">
          <mxGeometry x="-0.1607" y="-1" relative="1" as="geometry">
            <mxPoint x="-15" as="offset" />
          </mxGeometry>
        </mxCell>
        <mxCell id="2aPY3oi1z3smAxlEYfkH-12" value="" style="endArrow=classic;html=1;" parent="1" edge="1">
          <mxGeometry width="50" height="50" relative="1" as="geometry">
            <mxPoint x="80" y="230" as="sourcePoint" />
            <mxPoint x="240" y="230" as="targetPoint" />
          </mxGeometry>
        </mxCell>
        <mxCell id="2aPY3oi1z3smAxlEYfkH-15" value="wss handshark" style="edgeLabel;html=1;align=center;verticalAlign=middle;resizable=0;points=[];" parent="2aPY3oi1z3smAxlEYfkH-12" vertex="1" connectable="0">
          <mxGeometry x="0.1929" relative="1" as="geometry">
            <mxPoint x="-18" as="offset" />
          </mxGeometry>
        </mxCell>
        <mxCell id="2aPY3oi1z3smAxlEYfkH-18" value="" style="startArrow=classic;endArrow=classic;html=1;" parent="1" edge="1">
          <mxGeometry width="50" height="50" relative="1" as="geometry">
            <mxPoint x="240" y="250" as="sourcePoint" />
            <mxPoint x="400" y="250" as="targetPoint" />
          </mxGeometry>
        </mxCell>
        <mxCell id="2aPY3oi1z3smAxlEYfkH-19" value="ssh handshark" style="edgeLabel;html=1;align=center;verticalAlign=middle;resizable=0;points=[];" parent="2aPY3oi1z3smAxlEYfkH-18" vertex="1" connectable="0">
          <mxGeometry x="0.1321" y="1" relative="1" as="geometry">
            <mxPoint x="-9" as="offset" />
          </mxGeometry>
        </mxCell>
        <mxCell id="2aPY3oi1z3smAxlEYfkH-21" value="" style="endArrow=classic;html=1;" parent="1" edge="1">
          <mxGeometry width="50" height="50" relative="1" as="geometry">
            <mxPoint x="400" y="270" as="sourcePoint" />
            <mxPoint x="240" y="270" as="targetPoint" />
          </mxGeometry>
        </mxCell>
        <mxCell id="2aPY3oi1z3smAxlEYfkH-22" value="ssh msg" style="edgeLabel;html=1;align=center;verticalAlign=middle;resizable=0;points=[];" parent="2aPY3oi1z3smAxlEYfkH-21" vertex="1" connectable="0">
          <mxGeometry x="-0.1607" y="-1" relative="1" as="geometry">
            <mxPoint x="-15" as="offset" />
          </mxGeometry>
        </mxCell>
        <mxCell id="2aPY3oi1z3smAxlEYfkH-23" value="" style="endArrow=classic;html=1;" parent="1" edge="1">
          <mxGeometry width="50" height="50" relative="1" as="geometry">
            <mxPoint x="240.0000000000001" y="290" as="sourcePoint" />
            <mxPoint x="80" y="290" as="targetPoint" />
          </mxGeometry>
        </mxCell>
        <mxCell id="2aPY3oi1z3smAxlEYfkH-24" value="wss msg" style="edgeLabel;html=1;align=center;verticalAlign=middle;resizable=0;points=[];" parent="2aPY3oi1z3smAxlEYfkH-23" vertex="1" connectable="0">
          <mxGeometry x="-0.1607" y="-1" relative="1" as="geometry">
            <mxPoint x="-15" as="offset" />
          </mxGeometry>
        </mxCell>
        <mxCell id="2aPY3oi1z3smAxlEYfkH-25" value="" style="endArrow=classic;html=1;" parent="1" edge="1">
          <mxGeometry width="50" height="50" relative="1" as="geometry">
            <mxPoint x="80" y="310" as="sourcePoint" />
            <mxPoint x="240.0000000000001" y="310" as="targetPoint" />
          </mxGeometry>
        </mxCell>
        <mxCell id="2aPY3oi1z3smAxlEYfkH-29" value="wss msg" style="edgeLabel;html=1;align=center;verticalAlign=middle;resizable=0;points=[];fontSize=7;" parent="2aPY3oi1z3smAxlEYfkH-25" vertex="1" connectable="0">
          <mxGeometry x="0.106" relative="1" as="geometry">
            <mxPoint x="-11" y="-1" as="offset" />
          </mxGeometry>
        </mxCell>
        <mxCell id="2aPY3oi1z3smAxlEYfkH-27" value="" style="endArrow=classic;html=1;" parent="1" edge="1">
          <mxGeometry width="50" height="50" relative="1" as="geometry">
            <mxPoint x="240" y="330" as="sourcePoint" />
            <mxPoint x="400.0000000000001" y="330" as="targetPoint" />
          </mxGeometry>
        </mxCell>
        <mxCell id="2aPY3oi1z3smAxlEYfkH-28" value="ssh msg" style="edgeLabel;html=1;align=center;verticalAlign=middle;resizable=0;points=[];" parent="2aPY3oi1z3smAxlEYfkH-27" vertex="1" connectable="0">
          <mxGeometry x="0.1321" y="1" relative="1" as="geometry">
            <mxPoint x="-13" as="offset" />
          </mxGeometry>
        </mxCell>
        <mxCell id="2aPY3oi1z3smAxlEYfkH-31" value="" style="endArrow=classic;html=1;" parent="1" edge="1">
          <mxGeometry width="50" height="50" relative="1" as="geometry">
            <mxPoint x="400.0000000000001" y="350" as="sourcePoint" />
            <mxPoint x="240" y="350" as="targetPoint" />
          </mxGeometry>
        </mxCell>
        <mxCell id="2aPY3oi1z3smAxlEYfkH-32" value="ssh msg" style="edgeLabel;html=1;align=center;verticalAlign=middle;resizable=0;points=[];" parent="2aPY3oi1z3smAxlEYfkH-31" vertex="1" connectable="0">
          <mxGeometry x="-0.1607" y="-1" relative="1" as="geometry">
            <mxPoint x="-15" as="offset" />
          </mxGeometry>
        </mxCell>
        <mxCell id="2aPY3oi1z3smAxlEYfkH-33" value="" style="endArrow=classic;html=1;" parent="1" edge="1">
          <mxGeometry width="50" height="50" relative="1" as="geometry">
            <mxPoint x="240" y="370" as="sourcePoint" />
            <mxPoint x="80" y="370" as="targetPoint" />
          </mxGeometry>
        </mxCell>
        <mxCell id="2aPY3oi1z3smAxlEYfkH-34" value="wss msg" style="edgeLabel;html=1;align=center;verticalAlign=middle;resizable=0;points=[];" parent="2aPY3oi1z3smAxlEYfkH-33" vertex="1" connectable="0">
          <mxGeometry x="-0.1607" y="-1" relative="1" as="geometry">
            <mxPoint x="-15" as="offset" />
          </mxGeometry>
        </mxCell>
        <mxCell id="2aPY3oi1z3smAxlEYfkH-35" value="" style="endArrow=none;dashed=1;html=1;dashPattern=1 3;strokeWidth=2;fontSize=7;" parent="1" edge="1">
          <mxGeometry width="50" height="50" relative="1" as="geometry">
            <mxPoint x="160" y="410" as="sourcePoint" />
            <mxPoint x="160" y="390" as="targetPoint" />
          </mxGeometry>
        </mxCell>
        <mxCell id="2aPY3oi1z3smAxlEYfkH-36" value="" style="endArrow=none;dashed=1;html=1;dashPattern=1 3;strokeWidth=2;fontSize=7;" parent="1" edge="1">
          <mxGeometry width="50" height="50" relative="1" as="geometry">
            <mxPoint x="320" y="410" as="sourcePoint" />
            <mxPoint x="320" y="390" as="targetPoint" />
          </mxGeometry>
        </mxCell>
        <mxCell id="2aPY3oi1z3smAxlEYfkH-37" value="" style="endArrow=classic;html=1;" parent="1" edge="1">
          <mxGeometry width="50" height="50" relative="1" as="geometry">
            <mxPoint x="80" y="430" as="sourcePoint" />
            <mxPoint x="240" y="430" as="targetPoint" />
          </mxGeometry>
        </mxCell>
        <mxCell id="2aPY3oi1z3smAxlEYfkH-38" value="exit" style="edgeLabel;html=1;align=center;verticalAlign=middle;resizable=0;points=[];fontSize=7;" parent="2aPY3oi1z3smAxlEYfkH-37" vertex="1" connectable="0">
          <mxGeometry x="0.106" relative="1" as="geometry">
            <mxPoint x="-11" y="-1" as="offset" />
          </mxGeometry>
        </mxCell>
        <mxCell id="2aPY3oi1z3smAxlEYfkH-39" value="" style="endArrow=classic;html=1;" parent="1" edge="1">
          <mxGeometry width="50" height="50" relative="1" as="geometry">
            <mxPoint x="240" y="450" as="sourcePoint" />
            <mxPoint x="400.0000000000001" y="450" as="targetPoint" />
          </mxGeometry>
        </mxCell>
        <mxCell id="2aPY3oi1z3smAxlEYfkH-40" value="exit" style="edgeLabel;html=1;align=center;verticalAlign=middle;resizable=0;points=[];" parent="2aPY3oi1z3smAxlEYfkH-39" vertex="1" connectable="0">
          <mxGeometry x="0.1321" y="1" relative="1" as="geometry">
            <mxPoint x="-13" as="offset" />
          </mxGeometry>
        </mxCell>
        <mxCell id="2aPY3oi1z3smAxlEYfkH-41" value="" style="endArrow=classic;html=1;" parent="1" edge="1">
          <mxGeometry width="50" height="50" relative="1" as="geometry">
            <mxPoint x="400.0000000000001" y="470" as="sourcePoint" />
            <mxPoint x="240" y="470" as="targetPoint" />
          </mxGeometry>
        </mxCell>
        <mxCell id="2aPY3oi1z3smAxlEYfkH-42" value="ssh stop" style="edgeLabel;html=1;align=center;verticalAlign=middle;resizable=0;points=[];" parent="2aPY3oi1z3smAxlEYfkH-41" vertex="1" connectable="0">
          <mxGeometry x="-0.1607" y="-1" relative="1" as="geometry">
            <mxPoint x="-15" as="offset" />
          </mxGeometry>
        </mxCell>
        <mxCell id="2aPY3oi1z3smAxlEYfkH-46" value="" style="endArrow=classic;html=1;" parent="1" edge="1">
          <mxGeometry width="50" height="50" relative="1" as="geometry">
            <mxPoint x="240" y="490" as="sourcePoint" />
            <mxPoint x="80" y="490" as="targetPoint" />
          </mxGeometry>
        </mxCell>
        <mxCell id="2aPY3oi1z3smAxlEYfkH-47" value="wss stop" style="edgeLabel;html=1;align=center;verticalAlign=middle;resizable=0;points=[];" parent="2aPY3oi1z3smAxlEYfkH-46" vertex="1" connectable="0">
          <mxGeometry x="-0.1607" y="-1" relative="1" as="geometry">
            <mxPoint x="-15" as="offset" />
          </mxGeometry>
        </mxCell>
        <mxCell id="5QrnncAumbHNalsHD-51-1" value="" style="startArrow=classic;endArrow=classic;html=1;" parent="1" edge="1">
          <mxGeometry width="50" height="50" relative="1" as="geometry">
            <mxPoint x="80" y="169" as="sourcePoint" />
            <mxPoint x="240" y="169" as="targetPoint" />
          </mxGeometry>
        </mxCell>
        <mxCell id="5QrnncAumbHNalsHD-51-2" value="ssl handshark" style="edgeLabel;html=1;align=center;verticalAlign=middle;resizable=0;points=[];" parent="5QrnncAumbHNalsHD-51-1" vertex="1" connectable="0">
          <mxGeometry x="0.1321" y="1" relative="1" as="geometry">
            <mxPoint x="-9" as="offset" />
          </mxGeometry>
        </mxCell>
      </root>
    </mxGraphModel>
  </diagram>
</mxfile>
